<mxfile host="app.diagrams.net" modified="2021-11-18T20:11:48.739Z" agent="5.0 (X11)" etag="Af97gwUnMU922ajk-LOz" version="15.7.3" type="github">
  <diagram id="KCquEJpXrbXl-F_E12WD" name="Page-1">
    <mxGraphModel dx="1808" dy="1701" grid="1" gridSize="10" guides="1" tooltips="1" connect="1" arrows="1" fold="1" page="1" pageScale="1" pageWidth="827" pageHeight="1169" math="0" shadow="0">
      <root>
        <mxCell id="0" />
        <mxCell id="1" parent="0" />
        <mxCell id="dsr_hfcar22ZFNonx71S-7" style="edgeStyle=orthogonalEdgeStyle;rounded=0;orthogonalLoop=1;jettySize=auto;html=1;exitX=0.5;exitY=0.5;exitDx=0;exitDy=0;exitPerimeter=0;entryX=0;entryY=0.5;entryDx=0;entryDy=0;" edge="1" parent="1" source="dsr_hfcar22ZFNonx71S-1" target="dsr_hfcar22ZFNonx71S-3">
          <mxGeometry relative="1" as="geometry" />
        </mxCell>
        <mxCell id="dsr_hfcar22ZFNonx71S-1" value="Administrador" style="shape=umlActor;verticalLabelPosition=bottom;verticalAlign=top;html=1;outlineConnect=0;" vertex="1" parent="1">
          <mxGeometry x="-210" y="180" width="30" height="60" as="geometry" />
        </mxCell>
        <mxCell id="dsr_hfcar22ZFNonx71S-2" value="GPS" style="rounded=0;whiteSpace=wrap;html=1;direction=south;labelPosition=center;verticalLabelPosition=top;align=center;verticalAlign=bottom;" vertex="1" parent="1">
          <mxGeometry x="-130" y="-50" width="627.06" height="615" as="geometry" />
        </mxCell>
        <mxCell id="dsr_hfcar22ZFNonx71S-17" style="edgeStyle=orthogonalEdgeStyle;rounded=0;orthogonalLoop=1;jettySize=auto;html=1;exitX=0.5;exitY=1;exitDx=0;exitDy=0;entryX=0;entryY=0.5;entryDx=0;entryDy=0;" edge="1" parent="1" source="dsr_hfcar22ZFNonx71S-3" target="dsr_hfcar22ZFNonx71S-16">
          <mxGeometry relative="1" as="geometry" />
        </mxCell>
        <mxCell id="dsr_hfcar22ZFNonx71S-3" value="Supervisar camiones/furgonetas" style="ellipse;whiteSpace=wrap;html=1;fillColor=#f8cecc;strokeColor=#b85450;" vertex="1" parent="1">
          <mxGeometry x="-120" y="180" width="120" height="60" as="geometry" />
        </mxCell>
        <mxCell id="dsr_hfcar22ZFNonx71S-4" value="Registrar camiones" style="ellipse;whiteSpace=wrap;html=1;fillColor=#e1d5e7;strokeColor=#9673a6;" vertex="1" parent="1">
          <mxGeometry x="-110" y="30" width="100" height="50" as="geometry" />
        </mxCell>
        <mxCell id="dsr_hfcar22ZFNonx71S-14" style="edgeStyle=orthogonalEdgeStyle;rounded=0;orthogonalLoop=1;jettySize=auto;html=1;exitX=1;exitY=0;exitDx=0;exitDy=0;entryX=0;entryY=0.5;entryDx=0;entryDy=0;" edge="1" parent="1" source="dsr_hfcar22ZFNonx71S-5" target="dsr_hfcar22ZFNonx71S-11">
          <mxGeometry relative="1" as="geometry" />
        </mxCell>
        <mxCell id="dsr_hfcar22ZFNonx71S-15" style="edgeStyle=orthogonalEdgeStyle;rounded=0;orthogonalLoop=1;jettySize=auto;html=1;exitX=1;exitY=1;exitDx=0;exitDy=0;" edge="1" parent="1" source="dsr_hfcar22ZFNonx71S-5" target="dsr_hfcar22ZFNonx71S-13">
          <mxGeometry relative="1" as="geometry" />
        </mxCell>
        <mxCell id="dsr_hfcar22ZFNonx71S-5" value="Programar ruta" style="ellipse;whiteSpace=wrap;html=1;fillColor=#fff2cc;strokeColor=#d6b656;" vertex="1" parent="1">
          <mxGeometry x="90" y="40" width="110" height="55" as="geometry" />
        </mxCell>
        <mxCell id="dsr_hfcar22ZFNonx71S-6" value="" style="endArrow=classic;html=1;rounded=0;exitX=0.5;exitY=1;exitDx=0;exitDy=0;entryX=0.5;entryY=0;entryDx=0;entryDy=0;" edge="1" parent="1" source="dsr_hfcar22ZFNonx71S-4" target="dsr_hfcar22ZFNonx71S-3">
          <mxGeometry width="50" height="50" relative="1" as="geometry">
            <mxPoint x="120" y="160" as="sourcePoint" />
            <mxPoint x="170" y="110" as="targetPoint" />
          </mxGeometry>
        </mxCell>
        <mxCell id="dsr_hfcar22ZFNonx71S-10" value="" style="endArrow=classic;html=1;rounded=0;entryX=0;entryY=0.5;entryDx=0;entryDy=0;exitX=1;exitY=0;exitDx=0;exitDy=0;" edge="1" parent="1" source="dsr_hfcar22ZFNonx71S-3" target="dsr_hfcar22ZFNonx71S-5">
          <mxGeometry width="50" height="50" relative="1" as="geometry">
            <mxPoint x="120" y="160" as="sourcePoint" />
            <mxPoint x="170" y="110" as="targetPoint" />
          </mxGeometry>
        </mxCell>
        <mxCell id="dsr_hfcar22ZFNonx71S-11" value="Fecha/Hora salida" style="ellipse;whiteSpace=wrap;html=1;fillColor=#B8D5FF;strokeColor=#6c8ebf;" vertex="1" parent="1">
          <mxGeometry x="271" width="110" height="55" as="geometry" />
        </mxCell>
        <mxCell id="dsr_hfcar22ZFNonx71S-13" value="Fecha/ Hora llegada (prevista)" style="ellipse;whiteSpace=wrap;html=1;fillColor=#B8D5FF;strokeColor=#6c8ebf;" vertex="1" parent="1">
          <mxGeometry x="271" y="70" width="130" height="55" as="geometry" />
        </mxCell>
        <mxCell id="dsr_hfcar22ZFNonx71S-16" value="Modificar ruta" style="ellipse;whiteSpace=wrap;html=1;fillColor=#fff2cc;strokeColor=#d6b656;" vertex="1" parent="1">
          <mxGeometry x="-30" y="280" width="110" height="55" as="geometry" />
        </mxCell>
        <mxCell id="dsr_hfcar22ZFNonx71S-18" value="Mostrar" style="ellipse;whiteSpace=wrap;html=1;fillColor=#B8D5FF;strokeColor=#6c8ebf;" vertex="1" parent="1">
          <mxGeometry x="140" y="280" width="110" height="55" as="geometry" />
        </mxCell>
        <mxCell id="dsr_hfcar22ZFNonx71S-19" value="" style="endArrow=classic;html=1;rounded=0;exitX=1;exitY=0.5;exitDx=0;exitDy=0;entryX=0;entryY=0.5;entryDx=0;entryDy=0;" edge="1" parent="1" source="dsr_hfcar22ZFNonx71S-16" target="dsr_hfcar22ZFNonx71S-18">
          <mxGeometry width="50" height="50" relative="1" as="geometry">
            <mxPoint x="120" y="210" as="sourcePoint" />
            <mxPoint x="170" y="160" as="targetPoint" />
          </mxGeometry>
        </mxCell>
      </root>
    </mxGraphModel>
  </diagram>
</mxfile>
